# xmcd CD database file generated by Grip 3.3.1
# 
# Track frame offsets:
#       150
#       31305
#       48808
#       62648
#       86605
#       99160
#       116653
#       131930
#       145800
# 
# Disc length: 2263 seconds
# 
# Revision: 5
# Processed by: cddbd v1.5.2PL0 Copyright (c) Steve Scherf et al.
# Submitted via: Grip 3.3.1
# 
DISCID=7408d509
DTITLE=John Lee Hooker - Real Folk Blues
DYEAR=1966
DGENRE=Blues
TTITLE0=Let's Go Out Tonight
TTITLE1=Peace Lovin' Man
TTITLE2=Stella Mae
TTITLE3=I Put My Trust In You
TTITLE4=I'm In the Mood
TTITLE5=You Know, I Know
TTITLE6=I'll Never Trust Your Love Again
TTITLE7=One Bourbon, One Scotch, One Beer
TTITLE8=The Waterfront
EXTD=
EXTT0=
EXTT1=
EXTT2=
EXTT3=
EXTT4=
EXTT5=
EXTT6=
EXTT7=
EXTT8=
PLAYORDER=
